<svg width="16" height="20" viewBox="0 0 16 20" fill="none" xmlns="http://www.w3.org/2000/svg">
<path fill-rule="evenodd" clip-rule="evenodd" d="M7.62687 0.00389571C7.71661 0 7.81024 0 7.89998 0C12.1487 0 15.6055 3.45159 15.6133 7.69012C15.6133 8.18098 15.5665 8.67184 15.4728 9.15101C15.4611 9.22503 15.4455 9.30294 15.4221 9.39644C15.3051 9.91847 15.1295 10.4327 14.9032 10.9197C14.1151 12.7779 12.3789 15.6685 8.61396 18.789C8.41498 18.9526 8.16528 19.0422 7.90778 19.0422C7.65028 19.0422 7.40059 18.9526 7.20161 18.789C3.43274 15.6646 1.69657 12.7779 0.904562 10.9041C0.682176 10.4288 0.506608 9.91847 0.389562 9.39255C0.346646 9.22503 0.334941 9.13543 0.334941 9.13543C0.198388 8.42641 0.163274 7.68233 0.233502 6.94215C0.600244 3.12046 3.77998 0.13635 7.62687 0.00389571ZM4.8685 7.77972C4.8685 9.44709 6.22623 10.8067 7.89998 10.8067C9.57373 10.8067 10.9315 9.44709 10.9315 7.77972C10.9315 6.11236 9.56983 4.75276 7.89998 4.75276C6.23013 4.75276 4.8685 6.11236 4.8685 7.77972Z" fill="#FFCA58"/>
</svg>
