<svg width="180" height="26" viewBox="0 0 180 26" fill="none" xmlns="http://www.w3.org/2000/svg">
<path opacity="0.5" fill-rule="evenodd" clip-rule="evenodd" d="M10.4151 13.9545C10.6497 13.6948 10.7915 13.3589 10.7915 12.9929V10.2157H13.7253C13.8333 10.2157 13.9387 10.2053 14.0408 10.1853C14.2451 10.1452 14.4351 10.0679 14.6022 9.96084C15.0206 9.69255 15.2967 9.23918 15.2967 8.7278V5.75241C15.2967 5.24104 15.0206 4.78767 14.6022 4.51972C14.4351 4.41268 14.2451 4.33499 14.0408 4.29493C13.9387 4.27525 13.8333 4.26489 13.7253 4.26489H12.236C11.7111 4.60017 11.2314 4.99415 10.8065 5.43613C9.53239 6.76205 8.75472 8.52304 8.75472 10.4525C8.75472 10.9846 8.81381 11.5036 8.92616 12.0046C9.0013 12.3382 9.09979 12.6641 9.22016 12.9797C9.34089 13.2957 9.48315 13.6016 9.64583 13.8961C9.72681 14.0436 9.81326 14.1879 9.90445 14.3291C9.96974 14.2988 10.0328 14.2642 10.0927 14.2262C10.2127 14.1496 10.3214 14.0581 10.4151 13.9545Z" fill="white"/>
<path fill-rule="evenodd" clip-rule="evenodd" d="M22.2825 15.657C22.0848 15.8493 21.8761 16.0313 21.6577 16.2025L19.8503 13.8877C19.4979 13.436 18.8249 13.3404 18.3475 13.6746C18.0494 13.8828 17.8981 14.2102 17.913 14.5361C17.9189 14.6667 17.951 14.7972 18.0111 14.9194C18.0414 14.9809 18.0783 15.0403 18.1224 15.0969L19.824 17.276C18.849 17.6856 17.7715 17.9152 16.6382 17.9152C13.7898 17.9152 11.2897 16.4777 9.90434 14.329C9.81315 14.1877 9.72707 14.0434 9.64572 13.896C9.48304 13.6014 9.34078 13.2955 9.22005 12.9796C9.09968 12.664 9.00119 12.3383 8.92642 12.0044C8.81407 11.5038 8.75498 10.9845 8.75498 10.4527C8.75498 8.52286 9.53228 6.76221 10.8068 5.43594C11.2313 4.99397 11.7114 4.60034 12.2359 4.26471C13.4939 3.46018 15.0092 2.98989 16.6382 2.98989C20.985 2.98989 24.5214 6.33785 24.5214 10.4527C24.5214 11.1747 24.4123 11.8732 24.2092 12.5345C24.1282 12.7986 24.0315 13.0572 23.9214 13.3083C23.8105 13.56 23.6861 13.8045 23.5482 14.0413C23.4103 14.2782 23.2597 14.5071 23.0963 14.7274C23.0146 14.8376 22.9299 14.9453 22.8424 15.051C22.6673 15.2623 22.4802 15.4646 22.2825 15.657ZM22.9347 17.8378C25.2108 16.0958 26.6698 13.4329 26.6698 10.4527C26.6698 5.21599 22.1694 0.955771 16.6382 0.955771C14.4576 0.955771 12.4391 1.61977 10.7918 2.74266V1.48752C10.7918 0.669178 10.0845 0 9.22005 0H6.07691C5.21243 0 4.50516 0.669178 4.50516 1.48752V4.26471H1.57139C0.707271 4.26471 0 4.93423 0 5.75223V8.72797C0 9.54597 0.707271 10.2155 1.57139 10.2155H4.50516V12.9927C4.50516 13.8107 5.21243 14.4805 6.07691 14.4805H7.55565C9.15986 17.708 12.6269 19.9493 16.6382 19.9493C18.2504 19.9493 19.7737 19.585 21.1251 18.9428L25.2469 24.2216C25.4577 24.4913 25.7824 24.6339 26.1117 24.6339C26.3335 24.6339 26.5575 24.5693 26.7493 24.435C27.2264 24.1011 27.3275 23.464 26.9748 23.0127L22.9347 17.8378Z" fill="white"/>
<path fill-rule="evenodd" clip-rule="evenodd" d="M42.5846 5.44727C41.9083 5.44727 41.5257 5.80913 41.5257 6.42203V12.8811C41.5257 15.9159 38.8491 18.1437 35.9963 18.1437C33.614 18.1437 31.4371 16.3616 31.4371 13.8002V6.42203C31.4371 5.80913 30.9961 5.44727 30.3494 5.44727C29.6728 5.44727 29.2901 5.80913 29.2901 6.42203V13.8002C29.2901 17.8094 32.5551 20.0366 35.9667 20.0366C38.2607 20.0366 40.5255 19.1457 41.5844 17.1133V18.8674C41.5844 20.2037 43.7022 20.1761 43.7022 18.895V6.42203C43.7022 5.80913 43.2608 5.44727 42.5846 5.44727Z" fill="white"/>
<path fill-rule="evenodd" clip-rule="evenodd" d="M54.7903 5.33618C52.496 5.33618 50.2316 6.19941 49.1727 8.23146V6.50534C49.1727 5.16906 47.0549 5.19668 47.0549 6.47772V18.9507C47.0549 19.5636 47.4962 19.9255 48.1725 19.9255C48.8491 19.9255 49.2314 19.5636 49.2314 18.9507V12.4917C49.2314 9.45691 51.908 7.22942 54.7608 7.22942C57.1434 7.22942 59.3196 9.01113 59.3196 11.5725V18.9507C59.3196 19.5636 59.7609 19.9255 60.408 19.9255C61.0846 19.9255 61.4669 19.5636 61.4669 18.9507V11.5725C61.4669 7.56367 58.2023 5.33618 54.7903 5.33618Z" fill="white"/>
<path fill-rule="evenodd" clip-rule="evenodd" d="M75.7709 16.391C74.7078 17.5094 73.038 18.2356 71.398 18.2356C69.7282 18.2356 68.1187 17.5652 67.056 16.391C66.1447 15.4127 65.7199 14.0988 65.7199 12.841C65.7199 10.3248 67.2077 8.14459 69.7583 7.52924C70.214 7.41761 70.7909 7.33406 71.3679 7.33406C71.9448 7.33406 72.5522 7.41761 73.038 7.52924C75.6191 8.14459 77.107 10.3529 77.107 12.8968C77.107 14.0988 76.6208 15.4404 75.7709 16.391ZM79.1007 12.2628C78.8356 9.14443 76.8356 6.58305 73.6297 5.71982C72.8652 5.52507 72.1593 5.46948 71.4532 5.46948C70.7182 5.46948 69.9241 5.52507 69.2179 5.71982C65.9829 6.58305 64.0708 9.17206 63.7768 12.2628C63.6885 14.3508 64.2473 16.1328 65.571 17.6086C67.0122 19.2512 69.1005 20.1144 71.4532 20.1144C73.7767 20.1144 75.8945 19.2512 77.3357 17.6086C78.6298 16.1328 79.2182 14.3508 79.1007 12.2628Z" fill="white"/>
<path fill-rule="evenodd" clip-rule="evenodd" d="M97.2384 5.9032C95.1888 5.9032 93.3793 6.8935 92.3142 8.39483C91.2494 6.8935 89.4398 5.9032 87.3899 5.9032C85.8769 5.9032 84.4948 6.44358 83.4465 7.33029V6.51471C83.4465 6.00022 83.0055 5.58276 82.4616 5.58276C81.9177 5.58276 81.4768 6.00022 81.4768 6.51471V11.1503C81.4687 11.2708 81.4629 11.392 81.4629 11.5142V18.9508C81.4629 19.4656 81.9039 19.8831 82.4477 19.8831C82.4503 19.8831 82.4525 19.8827 82.4547 19.8827C82.4572 19.8827 82.4594 19.8831 82.4616 19.8831C83.0055 19.8831 83.4465 19.4656 83.4465 18.9508V11.2141C83.6084 9.28845 85.3148 7.76778 87.3899 7.76778C89.4347 7.76778 91.1217 9.24287 91.3267 11.1282C91.3176 11.2559 91.3111 11.3844 91.3111 11.5142V18.9508C91.3111 19.4656 91.7524 19.8831 92.2959 19.8831C92.3021 19.8831 92.308 19.8824 92.3142 19.882C92.3207 19.8824 92.3262 19.8831 92.3328 19.8831C92.8762 19.8831 93.3172 19.4656 93.3172 18.9508V11.5142C93.3172 11.3844 93.311 11.2559 93.3019 11.1282C93.5066 9.24287 95.1939 7.76778 97.2384 7.76778C99.4204 7.76778 101.196 9.44832 101.196 11.5142V18.9508C101.196 19.4656 101.637 19.8831 102.181 19.8831C102.724 19.8831 103.165 19.4656 103.165 18.9508V11.5142C103.165 8.42038 100.507 5.9032 97.2384 5.9032Z" fill="white"/>
<path fill-rule="evenodd" clip-rule="evenodd" d="M107.598 12.1856C107.774 9.9301 109.156 8.06483 111.51 7.4799C112.51 7.20125 113.716 7.20125 114.686 7.45228H114.657C116.951 8.00889 118.48 9.81891 118.686 12.1856H107.598ZM120.745 12.631C120.686 9.06686 118.627 6.50548 115.304 5.6426H115.275C113.833 5.28038 112.245 5.25242 110.862 5.6426C105.392 7.09006 104.01 13.4939 107.186 17.4478C108.568 19.0904 110.862 19.9256 113.157 19.9256C113.52 19.9308 113.886 19.9104 114.25 19.8763C115.303 19.7772 116.335 19.512 117.233 19.0434C117.268 19.023 117.304 19.0051 117.339 18.9844C117.394 18.954 117.446 18.9188 117.5 18.8873C117.885 18.6443 118.247 18.3628 118.578 18.0441C118.72 17.9071 118.86 17.7658 118.99 17.6142C119.986 16.5338 118.244 15.4551 117.502 16.3774L117.504 16.3722C117.216 16.7003 117.044 16.8429 116.976 16.8936C115.829 17.7265 114.42 18.06 113.068 18.06C110.127 18.06 108.068 16.1668 107.686 13.8837H119.304C120.51 13.8837 120.804 13.2156 120.745 12.603V12.631Z" fill="white"/>
<path fill-rule="evenodd" clip-rule="evenodd" d="M135.132 13.828C135.132 16.5565 132.867 18.1711 130.191 18.1711C129.073 18.0879 128.014 17.7536 127.161 17.1134C125.573 15.8604 124.956 14.1898 124.985 12.3802C125.014 11.6561 125.191 10.9044 125.426 10.3198C126.279 8.39859 128.367 7.34062 130.456 7.34062C133.132 7.4518 135.132 9.17826 135.132 11.6285V13.828ZM136.213 1.17334C135.645 1.17334 135.184 1.59253 135.15 2.12151C135.139 2.17987 135.132 2.24064 135.132 2.3059V7.67451C134.25 6.19908 132.338 5.41941 130.367 5.41941C125.956 5.41941 122.955 8.39859 122.838 12.3522C122.75 15.5821 124.367 18.3385 127.573 19.5913L127.544 19.5633C128.456 19.9255 129.455 20.0923 130.367 20.0923C132.132 20.0923 134.191 19.3685 135.191 17.6424V18.9507C135.191 19.5633 135.514 19.9255 136.191 19.9255C136.868 19.9255 137.279 19.5633 137.279 18.9507V2.3059C137.279 2.28449 137.277 2.26481 137.276 2.24409C137.277 2.22372 137.279 2.20369 137.279 2.18298C137.279 1.62533 136.802 1.17334 136.213 1.17334Z" fill="white"/>
<path fill-rule="evenodd" clip-rule="evenodd" d="M141.497 6.07056C140.939 6.07056 140.481 6.47662 140.435 6.99352C140.429 7.03392 140.426 7.07467 140.426 7.11783V19.0346C140.426 20.2317 142.573 20.2593 142.573 19.0346V7.09021C142.573 6.95934 142.546 6.84401 142.501 6.7425C142.354 6.35093 141.96 6.07056 141.497 6.07056Z" fill="white"/>
<path fill-rule="evenodd" clip-rule="evenodd" d="M141.497 3.19227C142.085 3.19227 142.563 2.74028 142.563 2.18298C142.563 1.62533 142.085 1.17334 141.497 1.17334C140.908 1.17334 140.43 1.62533 140.43 2.18298C140.43 2.74028 140.908 3.19227 141.497 3.19227Z" fill="white"/>
<path fill-rule="evenodd" clip-rule="evenodd" d="M157.172 16.3893C156.142 17.7259 154.436 18.227 152.878 18.227C151.289 18.227 149.671 17.5864 148.642 16.3893C147.76 15.3869 147.377 13.9667 147.377 12.7144C147.377 9.54008 149.554 7.06226 152.76 7.06226C154.231 7.06226 155.731 7.53565 156.848 8.76041C157.671 9.67923 159.26 8.51007 158.407 7.59125C156.819 5.8931 155.113 5.22461 152.995 5.22461C148.524 5.22461 145.436 8.03667 145.201 12.1574C145.083 14.1898 145.701 16.1662 146.936 17.6144C148.407 19.2293 150.642 20.0922 152.848 20.0922C155.024 20.0922 157.23 19.2853 158.672 17.6144C159.672 16.5285 157.907 15.4429 157.172 16.3893Z" fill="white"/>
<path fill-rule="evenodd" clip-rule="evenodd" d="M167.872 18.2389C164.992 18.2389 162.65 15.7676 162.65 12.7301C162.65 9.69253 164.992 7.22127 167.872 7.22127C170.752 7.22127 173.095 9.69253 173.095 12.7301C173.095 15.7676 170.752 18.2389 167.872 18.2389ZM174.176 5.44163C173.632 5.44163 173.191 5.85909 173.191 6.37392V7.77236C171.875 6.28933 169.978 5.35669 167.872 5.35669C163.906 5.35669 160.68 8.66425 160.68 12.7301C160.68 16.7955 163.906 20.1031 167.872 20.1031C169.978 20.1031 171.875 19.1708 173.191 17.6874V19.0016C173.191 19.5165 173.632 19.9339 174.176 19.9339C174.72 19.9339 175.161 19.5165 175.161 19.0016V6.37392C175.161 5.85909 174.72 5.44163 174.176 5.44163Z" fill="white"/>
<mask id="mask0" mask-type="alpha" maskUnits="userSpaceOnUse" x="177" y="1" width="3" height="19">
<path fill-rule="evenodd" clip-rule="evenodd" d="M177.853 1.34399H180V19.9428H177.853V1.34399Z" fill="white"/>
</mask>
<g mask="url(#mask0)">
<path fill-rule="evenodd" clip-rule="evenodd" d="M178.941 1.34399C178.295 1.34399 177.853 1.76145 177.853 2.29044V18.9961C177.853 19.525 178.295 19.9428 178.941 19.9428C179.53 19.9428 180 19.525 180 18.9961V2.29044C180 1.76145 179.53 1.34399 178.941 1.34399Z" fill="white"/>
</g>
</svg>
